<svg width="241" height="115" viewBox="0 0 241 115" fill="none" xmlns="http://www.w3.org/2000/svg">
<g clip-path="url(#clip0_2488_15749)">
<path d="M52.9175 95.5947C51.9893 95.6178 51.0844 95.6178 50.1562 95.537C50.0054 95.537 49.9589 95.4793 49.9357 95.3061C49.8777 95.0175 49.8545 94.475 49.8545 94.1748C50.8523 94.2903 51.8617 94.3249 52.8711 94.2787C52.8595 93.7708 52.8595 93.2513 52.8479 92.7434C51.56 92.778 50.5971 92.778 49.6457 92.6741C49.4949 92.6741 49.4368 92.6164 49.4136 92.4894C49.3788 92.1547 49.344 91.8314 49.3208 91.2889C50.4926 91.4274 51.6529 91.4274 52.8363 91.4274C52.8363 90.931 52.8247 90.5847 52.8131 90.1345C52.7899 89.8228 52.7551 89.5919 52.6506 89.2456C53.3584 89.2802 53.9385 89.361 54.3446 89.488C54.507 89.5457 54.5882 89.7305 54.4954 89.8921C54.4026 90.0768 54.3098 90.3076 54.2981 90.527C54.2865 90.7925 54.2865 90.9772 54.2749 91.3812C55.528 91.2889 56.4213 91.1388 57.2103 90.9772C57.3727 90.9426 57.4307 90.9772 57.4423 91.1388C57.5003 91.5082 57.5119 91.8776 57.5119 92.1085C57.5119 92.2816 57.4771 92.3047 57.3611 92.3278C56.4097 92.4894 55.5512 92.5933 54.2633 92.6741C54.2633 93.2052 54.2749 93.7015 54.2749 94.1864C55.2959 94.1171 56.0965 94.0479 57.0595 93.8978C57.2219 93.8632 57.2567 93.8862 57.2683 94.0017C57.2799 94.2556 57.3031 94.6943 57.3031 95.0983C57.3031 95.2369 57.2451 95.2715 57.1059 95.2831C56.2241 95.4331 55.4468 95.4677 54.3214 95.5486C54.3446 96.1604 54.3794 96.8184 54.4142 97.4302C55.702 97.7881 56.8042 98.2729 57.9644 99.0464C58.1037 99.1618 58.1037 99.208 58.0572 99.3696C57.9644 99.6235 57.686 100.12 57.4655 100.362C57.4075 100.443 57.3611 100.466 57.2915 100.466C57.2567 100.466 57.1987 100.455 57.1407 100.397C56.3169 99.7621 55.4932 99.2888 54.4722 98.8732C54.4606 100.316 53.5904 100.905 51.7457 100.905C49.9009 100.905 49.0076 100.143 49.0076 99.0348C49.0076 97.9266 50.0634 97.1416 51.6877 97.1416C52.0241 97.1416 52.349 97.1416 52.9755 97.1993C52.9523 96.6106 52.9175 96.068 52.9059 95.6063L52.9175 95.5947ZM51.7689 98.296C50.7943 98.296 50.3186 98.5731 50.3186 99.0002C50.3186 99.3465 50.7247 99.6005 51.6413 99.6005C52.175 99.6005 52.6738 99.4388 52.8595 99.1964C52.9639 99.0464 53.0103 98.827 53.0103 98.4461C52.6158 98.3537 52.1401 98.2845 51.7573 98.2845L51.7689 98.296Z" fill="white"></path>
<path d="M71.7709 98.0766C71.7709 98.2151 71.7593 98.2267 71.5504 98.2267H70.6223C70.483 98.2267 70.4714 98.2151 70.4714 98.0766C70.4714 97.9958 70.483 97.661 70.4946 96.1834C70.2742 96.4374 70.0886 96.7606 69.9609 97.0146C69.8913 97.1185 69.8565 97.1762 69.7869 97.1762C69.7173 97.1762 69.6477 97.1185 69.5433 97.0261C69.1488 96.6452 68.8123 96.2411 68.5339 95.8371V99.0925C68.5339 100.085 68.5571 101.009 68.5571 101.078C68.5571 101.217 68.5455 101.228 68.3946 101.228H67.3272C67.1764 101.228 67.1648 101.217 67.1648 101.078C67.1648 100.997 67.188 100.085 67.188 99.0925V96.3335C66.7935 96.7491 66.3991 97.1416 65.9814 97.511C65.8422 97.6264 65.7494 97.6957 65.6797 97.6957C65.6101 97.6957 65.5753 97.6149 65.5289 97.4763C65.4129 97.0492 65.2737 96.726 65.0532 96.3912C66.4919 95.4446 67.7333 93.967 68.4527 92.3393H66.9792C65.993 92.3393 65.6681 92.3624 65.5869 92.3624C65.4477 92.3624 65.4361 92.3509 65.4361 92.2123V91.2196C65.4361 91.081 65.4477 91.0695 65.5869 91.0695C65.6681 91.0695 65.993 91.0926 66.9792 91.0926H67.1764V90.5385C67.1764 89.8227 67.1648 89.4418 67.0372 88.8992C67.5361 88.9108 68.0118 88.957 68.4875 89.0147C68.6267 89.0262 68.7079 89.0839 68.7079 89.1532C68.7079 89.2686 68.6731 89.3379 68.6267 89.4303C68.5455 89.5919 68.5107 89.7881 68.5107 90.4807V91.081H68.8935C69.0328 91.081 69.0676 91.0695 69.1372 91.0233C69.172 91.0002 69.23 90.9425 69.2996 90.9425C69.404 90.9425 69.5549 91.0233 69.8797 91.3235C70.1814 91.6005 70.2394 91.6813 70.2394 91.7737C70.2394 91.9122 70.2046 91.9699 70.077 92.0738C69.9841 92.1546 69.8797 92.2931 69.7521 92.5702C69.4852 93.182 69.1488 93.7708 68.7659 94.3364C69.2068 94.9251 69.7405 95.4215 70.4714 95.9064V93.3783C70.4714 91.7275 70.4482 91.2773 70.4482 91.1965C70.4482 91.0579 70.4598 91.0464 70.5991 91.0464C70.6919 91.0464 71.1095 91.0695 72.3046 91.0695H73.0355V90.9079C73.0355 89.9613 73.0239 89.5457 72.8847 88.8877C73.3952 88.8992 73.8825 88.9223 74.3349 88.9916C74.451 89.0031 74.5322 89.0609 74.5322 89.1301C74.5322 89.2225 74.4974 89.3033 74.451 89.3956C74.3814 89.5688 74.3581 89.892 74.3581 90.8732V91.0695H75.2167C76.4117 91.0695 76.841 91.0464 76.9222 91.0464C77.0383 91.0464 77.0615 91.0579 77.0615 91.1965C77.0615 91.2773 77.0499 91.7275 77.0499 93.1358V95.0637C77.0499 97.4648 77.0615 97.9035 77.0615 97.9843C77.0615 98.1343 77.0499 98.1459 76.9222 98.1459H75.9012C75.762 98.1459 75.7504 98.1343 75.7504 97.9843V97.4763H74.3466V99.3811C74.3466 100.547 74.3698 100.951 74.3698 101.02C74.3698 101.159 74.3582 101.17 74.2189 101.17H73.1167C73.0007 101.17 72.9775 101.159 72.9775 101.02C72.9775 100.939 73.0007 100.547 73.0007 99.4042V97.4879H71.7129V98.0535L71.7709 98.0766ZM73.0819 93.6899V92.2816H71.7709V93.6899H73.0819ZM73.0819 96.345V94.8328H71.7709V96.345H73.0819ZM74.393 92.2816V93.6899H75.8084V92.2816H74.393ZM75.8084 96.345V94.8328H74.393V96.345H75.8084Z" fill="white"></path>
<path d="M75.1472 107.924C75.1472 107.104 75.124 106.7 75.0544 106.181C75.5765 106.192 76.1102 106.238 76.5626 106.284C76.7019 106.308 76.7831 106.365 76.7831 106.435C76.7831 106.538 76.7483 106.608 76.7019 106.712C76.6323 106.862 76.6207 107.093 76.6207 108.051V112.149C76.6207 113.626 76.6439 114.319 76.6439 114.4C76.6439 114.538 76.6323 114.55 76.493 114.55H75.298C75.1588 114.55 75.1472 114.538 75.1472 114.4V113.615H67.7334V114.4C67.7334 114.538 67.7218 114.55 67.5826 114.55H66.3992C66.2483 114.55 66.2367 114.538 66.2367 114.4C66.2367 114.307 66.2599 113.696 66.2599 112.218V107.958C66.2599 107.15 66.2483 106.758 66.1787 106.227C66.6892 106.238 67.2113 106.261 67.687 106.331C67.803 106.342 67.9074 106.411 67.9074 106.481C67.9074 106.573 67.8494 106.654 67.8262 106.746C67.7566 106.908 67.7334 107.173 67.7334 107.947V112.264H70.5875V104.611C70.5875 103.664 70.5643 103.248 70.4831 102.579C70.982 102.59 71.5621 102.613 72.0378 102.671C72.1538 102.683 72.235 102.752 72.235 102.821C72.235 102.925 72.2002 102.994 72.1538 103.098C72.0958 103.26 72.0842 103.595 72.0842 104.587V112.276H75.1472V107.924Z" fill="white"></path>
<path d="M52.6157 107.877C53.3699 107.45 54.008 107.277 54.7621 107.277C56.7229 107.277 58.1036 108.558 58.1036 110.498C58.1036 112.737 56.282 114.169 53.4047 114.169C51.7108 114.169 50.6782 113.442 50.6782 112.195C50.6782 111.294 51.5251 110.556 52.5809 110.556C53.8456 110.556 54.7737 111.225 55.1102 112.518C56.05 112.091 56.4793 111.502 56.4793 110.486C56.4793 109.263 55.6207 108.466 54.3677 108.466C53.2539 108.466 52.0124 108.963 50.9218 109.886C50.5273 110.232 50.2953 110.475 49.8892 110.879C49.7964 110.971 49.7268 111.029 49.6572 111.029C49.5992 111.029 49.5412 110.994 49.4599 110.913C49.1815 110.671 48.8798 110.325 48.671 110.048C48.5898 109.944 48.6362 109.851 48.7406 109.736C49.7964 108.893 50.5738 108.178 51.792 106.919C52.6273 106.065 53.2655 105.395 53.8804 104.622C53.0682 104.772 52.1168 104.957 51.2815 105.13C51.1075 105.165 50.9334 105.211 50.713 105.292C50.6434 105.315 50.5157 105.361 50.4461 105.361C50.3069 105.361 50.2141 105.292 50.1445 105.13C49.982 104.818 49.866 104.449 49.6688 103.687C50.0749 103.745 50.5157 103.745 50.9218 103.71C51.7456 103.629 52.929 103.456 53.9848 103.26C54.3212 103.191 54.5881 103.121 54.7273 103.064C54.7969 103.029 54.913 102.96 54.9826 102.96C55.1218 102.96 55.203 102.994 55.2958 103.064C55.7019 103.375 55.9688 103.641 56.2008 103.918C56.3052 104.033 56.3516 104.137 56.3516 104.241C56.3516 104.38 56.2704 104.495 56.1196 104.564C55.8875 104.668 55.7831 104.761 55.5279 104.991C54.5417 105.938 53.6367 106.885 52.6157 107.854V107.889V107.877ZM52.6389 111.698C52.2445 111.698 51.9892 111.929 51.9892 112.206C51.9892 112.622 52.3489 112.899 53.161 112.899C53.4047 112.899 53.5787 112.887 53.7759 112.841C53.6019 112.102 53.1958 111.687 52.6273 111.687L52.6389 111.698Z" fill="white"></path>
<path d="M39.1108 103.271C39.2732 103.306 39.3544 103.375 39.3544 103.491C39.3544 103.676 39.2616 103.872 39.2616 104.056C39.2616 104.322 39.2964 104.645 39.3312 104.957C39.4473 105.892 39.5865 106.561 39.7605 107.266C40.4334 106.908 40.9207 106.654 41.6749 106.25C42.0693 106.019 42.3942 105.8 42.603 105.523C43.0323 105.961 43.3804 106.434 43.5892 106.781C43.6472 106.862 43.682 106.966 43.682 107.058C43.682 107.196 43.6008 107.3 43.4152 107.323C43.0091 107.393 42.5566 107.554 42.1274 107.727C40.9671 108.201 39.8881 108.697 38.96 109.297C37.7881 110.059 37.3705 110.694 37.3705 111.318C37.3705 112.103 37.9622 112.449 39.5169 112.449C41.2108 112.449 42.5914 112.333 43.624 112.137C43.7749 112.114 43.8445 112.137 43.8677 112.299C43.9373 112.657 43.9721 113.141 44.0069 113.546C44.0185 113.696 43.9257 113.765 43.7633 113.776C42.5334 113.938 41.4544 113.973 39.7489 113.973C37.208 113.973 35.8506 113.141 35.8506 111.398C35.8506 109.909 36.8368 108.928 38.4147 107.935C38.0898 106.908 37.8462 105.696 37.7185 104.668C37.6257 103.953 37.5329 103.491 37.3705 103.11C38.0202 103.11 38.6351 103.144 39.134 103.271H39.1108Z" fill="white"></path>
<path d="M37.4517 96.4721C37.5678 96.5414 37.591 96.6107 37.5214 96.7146C37.3241 97.0262 37.1733 97.4649 37.1733 97.7304C37.1733 98.5731 38.0435 98.9887 40.3639 98.9887C41.6749 98.9887 42.9048 98.8386 44.0186 98.5962C44.2042 98.5616 44.2738 98.5962 44.297 98.7116C44.3666 98.9656 44.4827 99.6929 44.5175 100.028C44.5291 100.143 44.4478 100.201 44.2854 100.224C43.0324 100.455 41.791 100.547 40.3407 100.547C37.2313 100.547 35.7114 99.5774 35.7114 97.8343C35.7114 97.2802 35.9087 96.703 36.4308 95.918C36.7788 96.0912 37.1153 96.2644 37.4634 96.4491L37.4517 96.4721ZM40.4915 91.2197C41.4777 91.2197 42.4291 91.162 43.2876 91.1042C43.4269 91.0927 43.4733 91.1389 43.4849 91.2543C43.5429 91.566 43.5893 91.9354 43.6009 92.3972C43.6009 92.5819 43.5313 92.6627 43.3688 92.6742C42.0926 92.8589 41.1644 93.3091 40.0738 94.0018C39.9694 94.0826 39.8418 94.1172 39.7374 94.1172C39.6446 94.1172 39.5517 94.0941 39.4589 94.0364C39.1921 93.8632 38.902 93.7131 38.5191 93.6093C39.2153 93.159 39.807 92.7781 40.2827 92.501C39.981 92.5357 39.5633 92.5357 39.2965 92.5357C38.7396 92.5357 37.591 92.4549 36.8136 92.3048C36.6976 92.2817 36.6396 92.224 36.6396 92.0624C36.6396 91.7392 36.6628 91.3467 36.6976 90.8734C37.7186 91.1158 39.018 91.2197 40.4799 91.2197H40.4915ZM44.1578 89.7305C44.2274 89.6728 44.2738 89.6959 44.355 89.7536C44.7727 90.0768 45.26 90.6079 45.6313 91.185C45.6893 91.2659 45.6893 91.3351 45.5965 91.4044L45.028 91.82C44.9351 91.8892 44.8655 91.8777 44.7959 91.7853C44.3898 91.1735 43.9606 90.654 43.4385 90.2269L44.1578 89.7305ZM45.3528 88.8647C45.434 88.807 45.4688 88.8301 45.5501 88.8878C46.0489 89.2688 46.5362 89.7998 46.8263 90.2731C46.8843 90.3539 46.8959 90.4347 46.7915 90.5155L46.2578 90.9311C46.1534 91.0119 46.0837 90.9657 46.0257 90.8964C45.6661 90.3193 45.2368 89.8113 44.6799 89.3611L45.3528 88.8763V88.8647Z" fill="white"></path>
<path d="M18.2733 91.2428C17.0667 91.2428 16.649 91.2658 16.5678 91.2658C16.4286 91.2658 16.417 91.2543 16.417 91.1158V90.1807C16.417 90.0422 16.4286 90.0306 16.5678 90.0306C16.649 90.0306 17.0667 90.0537 18.2733 90.0537H21.5451V90.0191C21.5451 89.5804 21.5335 89.2341 21.4523 88.9109C21.9512 88.9109 22.4269 88.934 22.8794 88.9802C23.0186 88.9917 23.0998 89.0494 23.0998 89.1187C23.0998 89.211 23.0418 89.2803 23.007 89.3842C22.9838 89.4881 22.949 89.6612 22.949 90.0306V90.0653H26.3948C27.6015 90.0653 28.0191 90.0422 28.1004 90.0422C28.2396 90.0422 28.2512 90.0537 28.2512 90.1923V91.1273C28.2512 91.2658 28.2396 91.2774 28.1004 91.2774C28.0191 91.2774 27.6015 91.2543 26.3948 91.2543H18.2733V91.2428ZM27.7523 98.1229C27.7523 98.8502 27.7755 99.4043 27.7755 99.8198C27.7755 100.178 27.7175 100.547 27.4506 100.79C27.207 101.009 27.1258 101.067 26.1512 101.067C25.7335 101.067 25.7219 101.043 25.6523 100.651C25.5943 100.328 25.4899 99.993 25.3739 99.7621C25.7799 99.7968 25.7219 99.8198 26.012 99.8198C26.2324 99.8198 26.3484 99.7275 26.3484 99.4389V96.5068H18.2965V99.5082C18.2965 100.501 18.3197 100.951 18.3197 101.02C18.3197 101.159 18.3081 101.17 18.1689 101.17H17.0087C16.8695 101.17 16.8579 101.159 16.8579 101.02C16.8579 100.94 16.8811 100.536 16.8811 99.5082V96.9108C16.8811 95.9757 16.8579 95.5717 16.8579 95.4909C16.8579 95.3524 16.8695 95.3408 17.0087 95.3408C17.1015 95.3408 17.5424 95.3639 18.8302 95.3639H25.8031C27.0794 95.3639 27.5319 95.3408 27.6247 95.3408C27.7639 95.3408 27.7755 95.3524 27.7755 95.4909C27.7755 95.5717 27.7523 96.045 27.7523 97.0147V98.1114V98.1229ZM23.9584 91.9008C25.1882 91.9008 25.6175 91.8777 25.6987 91.8777C25.8379 91.8777 25.8495 91.8892 25.8495 92.0277C25.8495 92.1201 25.8263 92.3279 25.8263 92.8935V93.7131C25.8263 94.2672 25.8495 94.475 25.8495 94.5558C25.8495 94.6944 25.8379 94.7059 25.6987 94.7059C25.6175 94.7059 25.1882 94.6828 23.9584 94.6828H20.7098C19.48 94.6828 19.0507 94.7059 18.9695 94.7059C18.8302 94.7059 18.8186 94.6944 18.8186 94.5558C18.8186 94.475 18.8418 94.2557 18.8418 93.7131V92.8935C18.8418 92.3163 18.8186 92.1201 18.8186 92.0277C18.8186 91.8892 18.8302 91.8777 18.9695 91.8777C19.0507 91.8777 19.48 91.9008 20.7098 91.9008H23.9584ZM19.7932 100.282C19.654 100.282 19.6424 100.27 19.6424 100.132C19.6424 100.039 19.6656 99.8199 19.6656 98.5962V98.0998C19.6656 97.5919 19.6424 97.3379 19.6424 97.2571C19.6424 97.1186 19.654 97.107 19.7932 97.107C19.8744 97.107 20.2225 97.1301 21.2435 97.1301H23.3435C24.3529 97.1301 24.7009 97.107 24.7938 97.107C24.933 97.107 24.9446 97.1186 24.9446 97.2571C24.9446 97.3379 24.9214 97.5803 24.9214 97.9728V98.5616C24.9214 99.7621 24.9446 99.9815 24.9446 100.062C24.9446 100.201 24.933 100.212 24.7938 100.212H23.796C23.6451 100.212 23.6335 100.201 23.6335 100.062V99.7852H20.8954V100.143C20.8954 100.282 20.8838 100.293 20.7446 100.293H19.77L19.7932 100.282ZM24.4921 92.8589H20.1529V93.7478H24.4921V92.8589ZM20.907 98.8848H23.6451V98.0305H20.907V98.8848Z" fill="white"></path>
<path d="M23.9934 110.544C23.9818 110.325 23.9586 110.163 23.9122 109.944C24.411 109.955 24.9215 109.967 25.3276 110.036C25.4436 110.048 25.5133 110.117 25.5133 110.186C25.5133 110.256 25.4901 110.302 25.4436 110.383C25.4204 110.44 25.4088 110.475 25.3856 110.544H26.4994C27.6945 110.544 28.1005 110.521 28.1818 110.521C28.321 110.521 28.321 110.533 28.321 110.671V111.56C28.321 111.71 28.321 111.722 28.1818 111.722C28.1005 111.722 27.6945 111.699 26.4994 111.699H25.3856V111.883C25.3856 112.414 25.3972 112.83 25.3972 113.303C25.3972 113.811 25.2348 114.123 24.8983 114.296C24.6199 114.446 24.179 114.538 23.0768 114.538C22.6707 114.538 22.6591 114.538 22.5779 114.227C22.4851 113.8 22.3343 113.419 22.195 113.222C22.6823 113.257 23.1464 113.28 23.4249 113.28C23.8193 113.28 23.9818 113.165 23.9818 112.853V111.699H18.1343C16.9393 111.699 16.5332 111.722 16.452 111.722C16.3127 111.722 16.3127 111.71 16.3127 111.56V110.671C16.3127 110.533 16.3127 110.521 16.452 110.521C16.5332 110.521 16.9393 110.544 18.1343 110.544H23.9818H23.9934ZM19.9558 109.725C18.6332 109.725 18.1691 109.748 18.0879 109.748C17.937 109.748 17.9254 109.736 17.9254 109.598C17.9254 109.505 17.9486 109.17 17.9486 108.397V106.631C17.9486 105.811 17.9254 105.476 17.9254 105.384C17.9254 105.246 17.937 105.234 18.0879 105.234C18.1691 105.234 18.6448 105.257 19.9558 105.257H21.5453V104.564H18.3547C17.1481 104.564 16.7304 104.588 16.6492 104.588C16.51 104.588 16.4984 104.576 16.4984 104.437V103.572C16.4984 103.422 16.51 103.41 16.6492 103.41C16.7304 103.41 17.1481 103.433 18.3547 103.433H21.5453C21.5337 102.948 21.5221 102.625 21.4641 102.29C21.9398 102.302 22.3923 102.325 22.8564 102.383C22.9724 102.394 23.0304 102.44 23.0304 102.521C23.0304 102.625 22.9956 102.694 22.9608 102.787C22.926 102.879 22.8912 103.041 22.8912 103.433H26.3138C27.5436 103.433 27.9613 103.41 28.0425 103.41C28.1818 103.41 28.1934 103.422 28.1934 103.572V104.437C28.1934 104.576 28.1818 104.588 28.0425 104.588C27.9613 104.588 27.5436 104.564 26.3138 104.564H22.8912V105.257H24.7011C26.0238 105.257 26.4878 105.234 26.5923 105.234C26.7315 105.234 26.7431 105.246 26.7431 105.384C26.7431 105.465 26.7199 105.811 26.7199 106.585V108.397C26.7199 109.17 26.7431 109.528 26.7431 109.598C26.7431 109.736 26.7315 109.748 26.5923 109.748C26.4994 109.748 26.0238 109.725 24.7011 109.725H19.9558ZM19.921 111.826C20.0834 111.745 20.1066 111.756 20.2227 111.849C20.6636 112.276 21.1276 112.795 21.4757 113.326C21.5569 113.442 21.5337 113.488 21.3713 113.569L20.4315 114.065C20.2691 114.157 20.2459 114.169 20.1647 114.042C19.8166 113.453 19.3989 112.934 18.9696 112.495C18.8652 112.38 18.8884 112.333 19.0393 112.253L19.9442 111.826H19.921ZM21.5453 107.012V106.238H19.2713V107.012H21.5453ZM21.5453 108.755V107.947H19.2713V108.755H21.5453ZM22.8912 106.238V107.012H25.374V106.238H22.8912ZM25.374 107.958H22.8912V108.766H25.374V107.958Z" fill="white"></path>
<path d="M241 115C240.664 100.177 237.543 85.7823 231.695 72.172C225.662 58.1462 217.007 45.5403 205.973 34.7006C194.939 23.861 182.073 15.3416 167.732 9.38494C152.882 3.19743 137.114 0.0459561 120.836 -0.000219319C104.559 -0.0463948 88.7681 3.02427 73.8941 9.10789C59.5191 14.9953 46.6059 23.4338 35.5026 34.2158C24.3993 44.9862 15.6745 57.546 9.56018 71.5371C3.55026 85.3205 0.336463 99.9235 0 114.988H2.25082C2.58728 100.224 5.74307 85.9092 11.637 72.4029C17.6353 58.6773 26.1977 46.3484 37.0921 35.7742C47.9865 25.2 60.6561 16.9115 74.7643 11.1396C89.3598 5.15989 104.86 2.14694 120.836 2.19312C136.801 2.23929 152.29 5.33305 166.851 11.3936C180.924 17.2463 193.547 25.6041 204.384 36.236C215.22 46.8679 223.713 59.2429 229.63 73.0032C235.361 86.3364 238.424 100.455 238.761 114.988H241.012L241 115Z" fill="white"></path>
</g>
<defs>
<clipPath id="clip0_2488_15749">
<rect width="241" height="115" fill="white"></rect>
</clipPath>
</defs>
</svg>